<mxfile host="app.diagrams.net" agent="Mozilla/5.0 (X11; Ubuntu; Linux x86_64; rv:132.0) Gecko/20100101 Firefox/132.0" version="25.0.3">
  <diagram name="Page-1" id="90a13364-a465-7bf4-72fc-28e22215d7a0">
    <mxGraphModel dx="1368" dy="791" grid="1" gridSize="10" guides="1" tooltips="1" connect="1" arrows="1" fold="1" page="1" pageScale="1.5" pageWidth="1169" pageHeight="826" background="none" math="0" shadow="0">
      <root>
        <mxCell id="0" style=";html=1;" />
        <mxCell id="1" style=";html=1;" parent="0" />
        <mxCell id="DmUJMqRGcIQ_AH96ebLX-1" value="XIAO ESP32C3" style="rounded=0;whiteSpace=wrap;html=1;" vertex="1" parent="1">
          <mxGeometry x="600" y="400" width="120" height="120" as="geometry" />
        </mxCell>
        <mxCell id="DmUJMqRGcIQ_AH96ebLX-2" value="Display" style="whiteSpace=wrap;html=1;aspect=fixed;" vertex="1" parent="1">
          <mxGeometry x="800" y="560" width="80" height="80" as="geometry" />
        </mxCell>
        <mxCell id="DmUJMqRGcIQ_AH96ebLX-3" value="SCD41" style="whiteSpace=wrap;html=1;aspect=fixed;" vertex="1" parent="1">
          <mxGeometry x="940" y="420" width="80" height="80" as="geometry" />
        </mxCell>
        <mxCell id="DmUJMqRGcIQ_AH96ebLX-4" value="" style="endArrow=none;html=1;rounded=0;exitX=1;exitY=0.5;exitDx=0;exitDy=0;entryX=0;entryY=0.5;entryDx=0;entryDy=0;" edge="1" parent="1" source="DmUJMqRGcIQ_AH96ebLX-1" target="DmUJMqRGcIQ_AH96ebLX-3">
          <mxGeometry width="50" height="50" relative="1" as="geometry">
            <mxPoint x="770" y="620" as="sourcePoint" />
            <mxPoint x="820" y="570" as="targetPoint" />
          </mxGeometry>
        </mxCell>
        <mxCell id="DmUJMqRGcIQ_AH96ebLX-5" value="I2C" style="edgeLabel;html=1;align=center;verticalAlign=middle;resizable=0;points=[];" vertex="1" connectable="0" parent="DmUJMqRGcIQ_AH96ebLX-4">
          <mxGeometry x="0.4455" relative="1" as="geometry">
            <mxPoint as="offset" />
          </mxGeometry>
        </mxCell>
        <mxCell id="DmUJMqRGcIQ_AH96ebLX-6" value="" style="endArrow=none;html=1;rounded=0;exitX=0.5;exitY=0;exitDx=0;exitDy=0;" edge="1" parent="1" source="DmUJMqRGcIQ_AH96ebLX-2">
          <mxGeometry width="50" height="50" relative="1" as="geometry">
            <mxPoint x="710" y="610" as="sourcePoint" />
            <mxPoint x="840" y="460" as="targetPoint" />
          </mxGeometry>
        </mxCell>
        <mxCell id="DmUJMqRGcIQ_AH96ebLX-7" value="" style="endArrow=none;html=1;rounded=0;exitX=0.5;exitY=1;exitDx=0;exitDy=0;" edge="1" parent="1">
          <mxGeometry width="50" height="50" relative="1" as="geometry">
            <mxPoint x="840" y="360" as="sourcePoint" />
            <mxPoint x="840" y="460" as="targetPoint" />
          </mxGeometry>
        </mxCell>
        <mxCell id="DmUJMqRGcIQ_AH96ebLX-8" value="BMP680" style="whiteSpace=wrap;html=1;aspect=fixed;" vertex="1" parent="1">
          <mxGeometry x="800" y="280" width="80" height="80" as="geometry" />
        </mxCell>
        <mxCell id="DmUJMqRGcIQ_AH96ebLX-9" value="&lt;table cellpadding=&quot;0&quot; cellspacing=&quot;0&quot; border=&quot;0&quot; class=&quot;w21ad_table&quot;&gt;&lt;tbody&gt;&lt;tr&gt;&lt;td&gt;Stickstoffdioxid (NO₂):&lt;/td&gt;&lt;td&gt;15 µg/m³&lt;/td&gt;&lt;/tr&gt;&lt;tr&gt;&lt;td&gt;&lt;img alt=&quot;Icon für sehr gut&quot; height=&quot;10&quot; width=&quot;10&quot; class=&quot;w21ad_icon w21ad_map_legend_icon&quot; src=&quot;https://www.umweltbundesamt.de/sites/all/modules/custom/w21_air_data/img/airquality_marker_00.svg&quot;&gt; Feinstaub (PM₁₀):&lt;/td&gt;&lt;td&gt;19 µg/m³&lt;/td&gt;&lt;/tr&gt;&lt;tr&gt;&lt;td&gt;&lt;img alt=&quot;Icon für keine Daten&quot; height=&quot;10&quot; width=&quot;10&quot; class=&quot;w21ad_icon w21ad_map_legend_icon&quot; src=&quot;https://www.umweltbundesamt.de/sites/all/modules/custom/w21_air_data/img/airquality_marker_xx.svg&quot;&gt; Ozon (O₃):&lt;/td&gt;&lt;td&gt;-&lt;/td&gt;&lt;/tr&gt;&lt;tr&gt;&lt;td&gt;&lt;img alt=&quot;Icon für gut&quot; height=&quot;10&quot; width=&quot;10&quot; class=&quot;w21ad_icon w21ad_map_legend_icon&quot; src=&quot;https://www.umweltbundesamt.de/sites/all/modules/custom/w21_air_data/img/airquality_marker_10.svg&quot;&gt; Feinstaub (PM₂,₅):&lt;/td&gt;&lt;/tr&gt;&lt;/tbody&gt;&lt;/table&gt;" style="text;html=1;align=center;verticalAlign=middle;whiteSpace=wrap;rounded=0;" vertex="1" parent="1">
          <mxGeometry x="760" y="30" width="110" height="140" as="geometry" />
        </mxCell>
      </root>
    </mxGraphModel>
  </diagram>
</mxfile>
